@startuml "Class Diagram"

skinparam linetype ortho
skinparam classAttributeIconSize 0

' --- Data Layer ---
class "IdentityDbContext<TUser>" as IdentityDbContext <<framework>>
class IdentityUser <<framework>>

class AuthProviderDbContext {
    + AuthProviderDbContext(DbContextOptions)
}

class ApplicationUser

IdentityDbContext <|-down- AuthProviderDbContext
IdentityUser <|-left- ApplicationUser
AuthProviderDbContext "1" -up-> "*" ApplicationUser : manages >

IdentityDbContext -[hidden]- AuthorizationController

' --- Controllers ---
class Controller <<framework>>

class AuthorizationController {
    - _applicationManager: IOpenIddictApplicationManager {readOnly}
    - _authorizationManager: IOpenIddictAuthorizationManager {readOnly}
    - _scopeManager: IOpenIddictScopeManager {readOnly}
    - _signInManager: SignInManager<ApplicationUser> {readOnly}
    - _userManager: UserManager<ApplicationUser> {readOnly}

    +Authorize(): Task<IActionResult>
    +Accept(): Task<IActionResult>
    +Deny(): IActionResult
    +Logout(): IActionResult
    +LogoutPost(): Task<IActionResult>
    +Exchange(): Task<IActionResult>
    -CreateIdentityWithClaims(ApplicationUser, ClaimsPrincipal?): Task<ClaimsIdentity>
    -MustForceAuthentication(OpenIddictRequest?, AuthenticateResult?): bool
}
Controller <|-- AuthorizationController

class HomeController {
    +Index(): IActionResult
    +Error(): IActionResult
}
Controller <|-- HomeController

HomeController ..> ErrorViewModel
AuthorizationController ..> AuthorizeViewModel

' --- Models & ViewModels ---
class AuthorizeViewModel <<ViewModel>> {
    +ApplicationName: string?
    +Scope: string?
}

class ErrorViewModel <<ViewModel>> {
    +RequestId: string?
    +ShowRequestId: bool {readOnly}
}

AuthorizeViewModel -[hidden]- PageModel

' --- Identity Pages ---
class PageModel <<framework>>

' --- Login Model ---
class LoginModel {
    +Input: LoginInputModel
    +ErrorMessage: string
    - _signInManager: SignInManager<ApplicationUser> {readOnly}

    +OnGetAsync(string): Task
    +OnPostAsync(string): Task<IActionResult>
}

class LoginInputModel {
    +Email: string
    +Password: string
    +RememberMe: bool
}

LoginModel +-up- LoginInputModel
PageModel <|-left- LoginModel


' --- Register Model ---
class RegisterModel {
    - _signInManager: SignInManager<ApplicationUser>
    - _userManager: UserManager<ApplicationUser>
    - _userStore: IUserStore<ApplicationUser>
    - _emailStore: IUserEmailStore<ApplicationUser>
    - _emailSender: IEmailSender

    +Input: RegisterInputModel
    +ReturnUrl: string

    +OnGetAsync(string): Task
    +OnPostAsync(string): Task<IActionResult>
    -CreateUser(): ApplicationUser
}

class RegisterInputModel {
    +Email: string
    +Password: string
    +ConfirmPassword: string
}

RegisterModel +-left- RegisterInputModel
PageModel <|-- RegisterModel

' --- Index Model ---
class IndexModel {
    - _userManager: UserManager<ApplicationUser> {readOnly}
    - _signInManager: SignInManager<ApplicationUser> {readOnly}

    +Input: IndexInputModel
    +Username: string
    +StatusMessage: string
    +OnGetAsync(): Task<IActionResult>
    +OnPostAsync(): Task<IActionResult>
    -LoadAsync(ApplicationUser): Task
}

class IndexInputModel {
    +PhoneNumber: string
}

IndexModel +-- IndexInputModel
PageModel <|-right- IndexModel

@enduml
